<svg width="300" height="530" viewBox="0 0 300 530" fill="none" xmlns="http://www.w3.org/2000/svg">
<path d="M94.887 3.437C95.022 2.895 95.109 2.544 95.193 2.208C93.8 1.622 92.565 -0.00600004 90.614 1.655C92.288 1.847 93.102 3.899 94.887 3.437Z" fill="black"/>
<path d="M49.124 525.326C49.029 525.329 48.933 525.333 48.837 525.336C48.849 525.245 48.864 525.154 48.878 525.063C47.856 525.063 46.832 525.063 45.767 525.063C45.328 525.39 45.114 525.7 45.026 526.001H49.123C49.124 525.777 49.124 525.553 49.124 525.326Z" fill="black"/>
<path d="M7.01702 362.202C6.19002 361.467 5.06902 361.094 4.00002 360.66V362.363C4.97902 362.685 5.98902 363.088 7.01702 362.202Z" fill="black"/>
<path d="M174.165 0C174.211 0.011 174.252 0.01 174.299 0.024C174.298 0.016 174.297 0.008 174.296 0H174.165Z" fill="black"/>
<path d="M141.606 527.658C141.603 527.563 141.6 527.467 141.596 527.371C141.687 527.383 141.778 527.398 141.869 527.412C141.869 526.943 141.869 526.473 141.869 525.999H113.41C112.937 527.211 112.669 528.527 112.649 529.999H137.216C137.324 529.27 137.661 528.505 138.472 527.657C139.216 527.658 140.397 527.658 141.606 527.658Z" fill="black"/>
<path d="M296 502.973C296.801 503.125 297.635 503.569 298.479 504.071C297.733 505.241 296.887 505.552 296 505.509V510C296 518.823 288.823 526 280 526H250.898C251.236 526.164 251.574 526.397 251.917 526.759C250.463 528.249 248.916 527.863 246.854 526.751C247.452 526.452 248.003 526.189 248.53 526.001H147.678C147.792 526.218 147.856 526.499 147.831 526.887C145.943 528.225 143.897 527.712 141.868 527.413C141.868 527.495 141.868 527.577 141.868 527.659C141.779 527.659 141.693 527.659 141.605 527.659C141.631 528.44 141.657 529.22 141.683 530.001H189.309C189.331 529.912 189.353 529.823 189.379 529.721C190.025 529.554 190.543 529.717 191.021 530.001H280C291.046 530.001 300 521.047 300 510.001V490.434C298.679 490.919 297.345 491.404 296 491.888V502.973ZM271.577 529.124C273.761 527.308 276.108 527.291 278.568 528.514C276.354 530.767 273.944 528.983 271.577 529.124Z" fill="black"/>
<path d="M298.116 485.686C298.022 485.173 296.882 485.484 296 485.31V488.785C297.057 488.226 297.875 487.342 298.116 485.686Z" fill="black"/>
<path d="M300 483.172V407.624C299.433 406.831 298.595 406.24 297.23 406.041C296.451 406.183 297.572 408.739 296 409.132V483.308C297.295 482.812 298.645 482.961 300 483.172Z" fill="black"/>
<path d="M298.513 367.767C298.923 369.339 299.605 370.805 300 372.316V229.447C299.989 229.459 299.979 229.471 299.968 229.483C298.383 229.418 297.013 229.061 296 228.219V338.513C296.658 337.874 297.467 337.367 297.731 336.633C299.209 339.777 297.127 340.347 296 341.874V357.988C297.519 356.517 297.395 355.043 297.213 353.564C298.179 353.622 298.539 354.147 298.541 355C298.543 356.114 298.59 357.229 298.617 358.342C297.911 358.288 297.193 358.232 296 358.14V365.139C296.374 365.136 296.864 365.161 297.509 365.195C296.892 365.69 296.435 366.056 296 366.405V372.467C296.457 372.427 296.924 372.325 297.408 372.116C298.691 371.047 296.918 369.238 298.513 367.767Z" fill="black"/>
<path d="M300 226.65V150.234C299.036 149.826 298.646 148.808 298.111 147.943C298.692 147.386 299.336 147.253 300 147.258V60.3C299.226 60.164 298.5 59.848 297.874 59.159C298.581 58.796 299.29 58.554 300 58.393V20C300 12.768 296.149 6.452 290.398 2.939C287.535 3.682 285.238 1.08 282.487 1.241C280.767 1.884 279.04 2.529 277.433 3.129C276.093 2.314 275.472 1.191 275.027 0H174.377L174.426 0.053C174.381 0.038 174.343 0.037 174.299 0.024C174.537 1.4 174.03 2.686 173.61 4H280C288.823 4 296 11.177 296 20V225.495C296.985 225.495 297.966 225.495 298.927 225.495C299.525 225.759 299.816 226.178 300 226.65Z" fill="black"/>
<path d="M297.809 397.533C298.757 396.418 299.685 398.059 299.819 398.403C299.881 398.562 299.939 398.723 300 398.882V383.165C299.355 383.841 298.656 383.902 297.945 383.791C297.396 383.706 296.875 383.468 296.279 383.279C297.526 382.138 298.697 382.545 300 382.859V376.465C299.957 376.604 299.916 376.741 299.862 376.882C298.658 375.917 297.394 375.161 296 374.658V403.221C296.648 403.221 297.3 403.221 297.97 403.221C300.781 401.133 295.062 399.671 297.809 397.533Z" fill="black"/>
<path d="M42.45 526H20C11.177 526 4.00002 518.823 4.00002 510V501.961C3.90302 502.205 3.80302 502.449 3.68002 502.696C1.42702 500.483 3.21102 498.072 3.07002 495.705C3.47002 496.186 3.76902 496.677 4.00002 497.173V363.987C3.18202 364.382 2.57302 365.378 1.53002 364.429C0.546023 363.346 1.42002 362.791 2.35702 362.148C2.89302 362.023 3.44102 362.18 4.00002 362.364V360.661C2.67102 360.121 1.42102 359.486 0.915023 357.938C2.02302 357.88 3.03902 358.035 4.00002 358.315V284.705C3.84402 284.955 3.65402 285.205 3.38702 285.458C1.89702 284.004 2.28302 282.457 3.39502 280.395C3.62102 280.847 3.82802 281.271 3.99902 281.68V158.571C3.20802 159.194 2.23702 158.781 1.25902 158.514C1.38802 157.602 2.04402 157.062 2.85002 156.512C3.55302 156.623 3.74402 156.653 3.91702 156.679C3.94802 156.695 3.97102 156.714 3.99902 156.73V112.83C2.09402 111.162 0.806023 109.442 -0.000976562 107.66V139.962C0.873023 140.153 1.11502 141.241 1.10102 142.865C0.683023 142.86 0.324023 142.805 -0.000976562 142.72V478.144C0.222023 478.562 0.413023 479.022 0.538023 479.573C0.590023 479.573 0.641023 479.573 0.692023 479.573L0.575023 479.7C0.565023 479.654 0.548023 479.618 0.538023 479.573C0.358023 479.573 0.179023 479.573 -0.000976562 479.573V510C-0.000976562 519.204 6.22402 526.935 14.687 529.264C14.512 529.176 14.337 529.088 14.153 528.982C16.66 527.941 18.361 526.254 22.181 526.234C20.824 528.147 19.585 529.571 17.95 529.895C18.625 529.965 19.308 530 20 530H43.973C43.95 529.953 43.93 529.911 43.919 529.881C43.421 528.593 42.933 527.3 42.45 526ZM1.02202 305.118C2.83802 307.302 2.85502 309.649 1.63202 312.109C-0.620977 309.896 1.16302 307.485 1.02202 305.118Z" fill="black"/>
<path d="M111.09 526H104.835C105.079 526.304 105.306 526.587 105.546 526.886C104.025 527.447 103.755 527.542 103.789 526H96.809C96.798 526.137 96.789 526.258 96.778 526.408C96.637 526.252 96.495 526.126 96.354 526H80.186C80.442 526.228 80.719 526.438 81.044 526.598C78.812 527.834 77.776 526.974 76.91 526H53.43C53.43 527.204 53.43 528.408 53.43 529.612C52.09 529.84 50.758 530.024 49.124 528.459C49.124 527.856 49.123 526.961 49.123 526.001H45.026C44.623 527.391 47.261 528.562 46.581 530.001H110.384C110.798 528.707 111.3 527.412 111.09 526Z" fill="black"/>
<path d="M4.00002 20C4.00002 11.177 11.177 4 20 4H142.612C142.581 3.064 142.549 2.128 142.518 1.192C143.995 1.192 145.471 1.192 146.947 1.192C147.101 2.099 147.222 3.004 146.807 4H171.593C171.663 3.139 171.645 2.226 171.524 1.242C171.816 0.819 172.312 0.204 173.088 0H20C8.95402 0 2.34375e-05 8.954 2.34375e-05 20V46.14C0.190023 48.164 0.250023 49.219 2.34375e-05 50.499V100.655C1.09402 103.353 2.76002 105.94 4.00002 109.013V20ZM95.193 2.208C95.109 2.544 95.022 2.895 94.887 3.437C93.102 3.9 92.288 1.848 90.614 1.655C92.565 -0.00600004 93.8 1.622 95.193 2.208Z" fill="black"/>
</svg>
