<svg width="190" height="1" viewBox="0 0 190 1" fill="none" xmlns="http://www.w3.org/2000/svg">
<path d="M13.7047 0.512519C13.7073 0.41022 13.6928 0.320583 13.6639 0.241276C13.6316 0.241276 13.5988 0.241276 13.566 0.241276L13.7047 0.512519Z" fill="#FFC600"/>
<path d="M103.723 -0.00064334H72.1722C72.4581 0.0716659 72.7607 0.183962 73.0909 0.32958C72.0926 0.637811 71.3364 1.06533 70.5322 0.288927C70.7067 0.151639 70.8833 0.0596699 71.0637 -0.000976562H67.9978C67.9131 0.224615 67.8042 0.463202 67.7067 0.72045C67.4672 0.463868 67.3229 0.226281 67.2408 -0.000976562H66.7566C66.7791 0.308254 66.6489 0.636144 66.4974 0.99869H67.9459C68.0506 0.91905 68.1484 0.82908 68.228 0.709453C68.3089 0.809087 68.3765 0.904722 68.4348 0.99869H69.168C69.1642 0.995025 69.1603 0.992359 69.1565 0.988694C69.8897 0.411886 70.6535 0.5685 71.6466 0.99869H88.8607C89.0968 0.767434 89.6279 0.701123 90.373 0.725781C90.3879 0.826081 90.387 0.914052 90.3819 0.99869H104.204C104.182 0.707454 104.051 0.381896 103.723 -0.00064334Z" fill="#FFC600"/>
<path d="M125.464 -0.00064334H106.596C106.596 0.335578 106.596 0.6688 106.596 0.999023H124.146C124.544 0.658803 125.001 0.344575 125.464 -0.00064334Z" fill="#FFC600"/>
<path d="M105.455 -0.00064334H105.287C105.287 0.336244 105.287 0.669467 105.287 0.999023H105.382C105.506 0.69979 105.579 0.37923 105.455 -0.00064334Z" fill="#FFC600"/>
<path d="M151.705 0.999023H154.08C154.258 0.736778 154.438 0.473199 154.622 0.209287C154.896 0.323582 155.022 0.4682 155.079 0.626481C155.219 0.418217 155.362 0.209287 155.506 -0.00064334H152.171C152.125 0.14031 152.071 0.280263 151.999 0.420216C151.354 0.524515 150.877 0.62948 150.382 0.0286802C150.387 0.0190168 150.391 0.00902011 150.395 -0.00064334H130.106C130.106 0.324248 130.106 0.655471 130.106 0.999023H147.728C148.031 0.907721 148.294 0.889727 148.534 0.911719C148.491 0.782096 148.448 0.652139 148.402 0.523515C150.069 -0.324869 150.701 0.697457 151.705 0.999023Z" fill="#FFC600"/>
<path d="M190 -0.00064334H172.434C172.133 0.256937 171.705 0.437877 171.278 0.621149C171.124 0.419883 171.005 0.218617 170.983 -0.00064334H156.321C156.39 0.306254 156.242 0.655805 156.374 0.943042C156.383 0.962036 156.385 0.980363 156.392 0.999023H190V-0.00064334Z" fill="#FFC600"/>
<path d="M128.839 -0.00064334C128.839 0.325915 128.839 0.657137 128.839 0.999023H129.861C129.787 0.631479 129.713 0.303255 129.657 -0.00064334H128.839Z" fill="#FFC600"/>
<path d="M30.7817 -0.00064334H29.9916C30.1681 0.338577 30.3418 0.672132 30.512 0.999023H30.9609C30.7515 0.674798 30.6869 0.343908 30.7817 -0.00064334Z" fill="#FFC600"/>
<path d="M33.811 0.641809C33.7655 0.423215 33.7842 0.209953 33.8353 -0.00064334H31.8021C31.9762 0.333912 32.1498 0.667467 32.3226 0.999023H33.8693C33.8515 0.87973 33.8357 0.760103 33.811 0.641809Z" fill="#FFC600"/>
<path d="M47.5745 0.999023H53.8467C53.8935 0.662802 53.9573 0.329247 54.0416 -0.00064334H46.6864C46.8341 0.0183503 46.9835 0.0533387 47.1332 0.0923257C47.4588 0.401223 47.583 0.702456 47.5745 0.999023Z" fill="#FFC600"/>
<path d="M44.4018 0.912052C44.7716 0.616484 45.1661 0.659137 45.5665 0.754772C45.6103 0.565168 45.6933 0.386228 45.8226 0.212286C45.9758 0.0896599 46.1337 0.0260144 46.2941 -0.00064334H37.3577C37.3731 0.350906 37.3897 0.684795 37.4075 0.999023H44.3456C44.3648 0.970033 44.3801 0.94071 44.4018 0.912052Z" fill="#FFC600"/>
<path d="M65.7813 -0.00064334H56.733C56.676 0.261936 56.6134 0.523848 56.5466 0.785095C56.6364 0.775765 56.727 0.767767 56.8168 0.75877C56.9487 0.836078 57.0483 0.916384 57.1262 0.999023H66.003C65.7893 0.643142 65.7455 0.31825 65.7813 -0.00064334Z" fill="#FFC600"/>
<path d="M128.448 0.999023C128.373 0.635478 128.315 0.308254 128.304 -0.00064334H127.405C127.161 0.430213 126.764 0.663802 125.956 0.938044C125.939 0.957704 125.925 0.98003 125.906 0.999023H128.448Z" fill="#FFC600"/>
<path d="M29.7294 -0.00064334H15.2098C15.2592 0.147307 15.3281 0.241609 15.4158 0.241609C14.7915 0.241609 14.2264 0.241276 13.6639 0.241276C13.6928 0.320583 13.7073 0.41022 13.7047 0.512519L13.566 0.241276C13.5988 0.241276 13.6316 0.241276 13.6639 0.241276C13.6273 0.141976 13.5656 0.0623357 13.4813 -0.00064334H0V0.999023H29.2895C29.2933 0.678464 29.4418 0.346574 29.7294 -0.00064334Z" fill="#FFC600"/>
</svg>
