<svg xmlns="http://www.w3.org/2000/svg" width="160" height="160" viewBox="0 0 160 160" fill="none"><path d="M156.88 65.651L90.699 4.201C87.781 1.492 83.979 0 80 0C76.021 0 72.219 1.492 69.301 4.201L3.12 65.654C1.135 67.496 0 70.106 0 72.813C0 78.199 4.383 82.581 9.768 82.581H10.093C12.558 82.581 14.91 81.66 16.717 79.99L18.064 78.749V85.162H23.225V144.517H19.05L11.308 160H148.692L140.95 144.516H136.774V85.161H141.935V78.746L143.279 79.987C145.086 81.659 147.439 82.58 149.903 82.58H150.228C155.616 82.58 159.999 78.197 159.999 72.812C160 70.106 158.865 67.496 156.88 65.651ZM28.387 85.161H33.548V144.516H28.387V85.161ZM58.761 85.161C50.054 89.646 43.092 96.722 38.709 105.233V85.161H58.761ZM137.76 149.677L140.341 154.838H19.66L22.241 149.677H137.76ZM121.29 105.236C116.911 96.723 109.945 89.649 101.238 85.162H121.29V105.236ZM126.452 144.516V85.161H131.613V144.516H126.452ZM136.774 80H98.064V83.672C97.23 83.319 96.397 82.968 95.538 82.66L93.814 87.525C110.248 93.359 121.29 109.001 121.29 126.451V144.516H38.71V126.451C38.71 109 49.752 93.356 66.189 87.527L64.465 82.663C63.603 82.967 62.77 83.321 61.936 83.674V80H23.226V74.839H56.774V69.678H27.892L80 21.576L132.111 69.677H103.226V74.838H136.774V80ZM150.232 77.419H149.907C148.746 77.419 147.636 76.986 146.785 76.195L80 14.553L13.216 76.198C12.364 76.986 11.254 77.419 10.094 77.419H9.768C7.228 77.419 5.161 75.352 5.161 72.812C5.161 71.536 5.698 70.304 6.632 69.434L72.813 7.985C76.736 4.346 83.268 4.343 87.188 7.985L153.369 69.434C154.303 70.305 154.84 71.536 154.84 72.812C154.839 75.353 152.772 77.419 150.232 77.419Z" fill="black"></path><path d="M80.0001 92.903C65.7701 92.903 54.1941 81.327 54.1941 67.097C54.1941 52.867 65.7701 41.29 80.0001 41.29C94.2301 41.29 105.806 52.866 105.806 67.096C105.806 81.326 94.2301 92.903 80.0001 92.903Z" fill="#FFC600"></path><path d="M79.9999 82.5811C72.8859 82.5811 67.0969 77.9511 67.0969 72.2581C67.0969 66.5651 72.8859 61.9351 79.9999 61.9351C87.1139 61.9351 92.9029 66.5651 92.9029 72.2581C92.9029 77.9511 87.1139 82.5811 79.9999 82.5811ZM79.9999 67.0971C75.8039 67.0971 72.2579 69.4611 72.2579 72.2581C72.2579 75.0551 75.8039 77.4191 79.9999 77.4191C84.1959 77.4191 87.7419 75.0551 87.7419 72.2581C87.7419 69.4611 84.1959 67.0971 79.9999 67.0971Z" fill="black"></path><path d="M82.5809 54.194C82.5809 55.619 81.4259 56.775 79.9999 56.775C78.5739 56.775 77.4189 55.62 77.4189 54.194C77.4189 52.769 78.5739 51.613 79.9999 51.613C81.4259 51.613 82.5809 52.768 82.5809 54.194Z" fill="black"></path><path d="M72.2579 59.3549C72.2579 60.7799 71.1029 61.9359 69.6769 61.9359C68.2519 61.9359 67.0959 60.7809 67.0959 59.3549C67.0959 57.9289 68.2509 56.7739 69.6769 56.7739C71.1029 56.7739 72.2579 57.9299 72.2579 59.3549Z" fill="black"></path><path d="M92.903 59.3549C92.903 60.7799 91.748 61.9359 90.322 61.9359C88.897 61.9359 87.741 60.7809 87.741 59.3549C87.741 57.9289 88.896 56.7739 90.322 56.7739C91.748 56.7739 92.903 57.9299 92.903 59.3549Z" fill="black"></path></svg>