<svg xmlns="http://www.w3.org/2000/svg" width="160" height="160" viewBox="0 0 160 160" fill="none"><path d="M150.034 60.2579C151.925 59.1279 152.258 57.9579 152.258 56.7739V46.4519C152.258 43.0789 148.271 42.1869 136.735 40.0909L134.612 39.7029L133.674 44.7799L135.814 45.1689C138.175 45.5969 141.473 46.1959 144.039 46.7889C135.223 49.1179 111.257 51.6129 80 51.6129C48.743 51.6129 24.777 49.1179 15.964 46.7889C18.53 46.1979 21.827 45.5969 24.191 45.1689L26.331 44.7799L25.393 39.7029L23.27 40.0909C11.731 42.1839 7.742 43.0789 7.742 46.4519V56.7749C7.742 57.9589 8.075 59.1289 9.961 60.2569L0.101 94.7779L0 95.4839C0 97.2769 0 99.1329 14.996 102.908C24.203 105.225 35.525 107.293 46.867 108.732L47.517 103.612C25.837 100.866 9.819 96.5769 5.527 94.5699L6.701 90.4559C15.101 93.3829 33.25 97.1559 53.343 99.1999L53.865 94.0649C46.675 93.3339 39.92 92.4029 33.833 91.3909L38.159 65.4449C50.507 66.5009 65.338 67.0969 79.999 67.0969C94.66 67.0969 109.491 66.5009 121.839 65.4429L126.165 91.3889C120.079 92.3979 113.324 93.3299 106.136 94.0629L106.658 99.1979C126.751 97.1539 144.903 93.3809 153.3 90.4539L154.474 94.5679C150.182 96.5779 134.168 100.862 112.489 103.608L113.137 108.728C124.479 107.292 135.796 105.224 145.006 102.904C160 99.1329 160 97.2769 160 95.4839L150.034 60.2579ZM14.802 62.1029C16.803 62.6369 19.384 63.1609 22.66 63.6669L16.08 87.8009C12.761 86.9779 10.054 86.1909 8.119 85.4989L14.802 62.1029ZM21.11 88.9679L27.814 64.3849C28.986 64.5289 30.214 64.6709 31.522 64.8129C32 64.8629 32.521 64.9079 33.009 64.9589L28.751 90.4999C26.011 89.9949 23.463 89.4809 21.11 88.9679ZM80 61.9349C43.674 61.9349 17.198 58.5619 12.903 56.0029V51.2209C16.353 52.3709 22.061 53.4689 31.522 54.4909C44.947 55.9439 62.615 56.7739 80 56.7739C97.385 56.7739 115.053 55.9439 128.478 54.4909C137.939 53.4689 143.647 52.3689 147.097 51.2209V56.0029C142.802 58.5619 116.326 61.9349 80 61.9349ZM131.249 90.4999L126.991 64.9589C127.479 64.9099 128 64.8629 128.478 64.8129C129.788 64.6709 131.017 64.5279 132.186 64.3849L138.89 88.9679C136.537 89.4809 133.989 89.9949 131.249 90.4999ZM143.923 87.8009L137.343 63.6669C140.617 63.1589 143.201 62.6379 145.201 62.1029L151.884 85.4959C149.948 86.1879 147.242 86.9779 143.923 87.8009Z" fill="black"></path><path d="M80 160C58.655 160 41.29 142.635 41.29 121.29C41.29 99.9451 58.655 82.5811 80 82.5811C101.345 82.5811 118.71 99.9461 118.71 121.291C118.71 142.636 101.345 160 80 160Z" fill="#FFC600"></path><path d="M80.0001 113.548C75.7321 113.548 72.2581 110.074 72.2581 105.806C72.2581 101.538 75.7321 98.064 80.0001 98.064C84.2681 98.064 87.7421 101.538 87.7421 105.806C87.7421 110.074 84.2681 113.548 80.0001 113.548ZM80.0001 103.226C78.5791 103.226 77.4191 104.383 77.4191 105.807C77.4191 107.231 78.5781 108.388 80.0001 108.388C81.4221 108.388 82.5811 107.231 82.5811 105.807C82.5811 104.383 81.4211 103.226 80.0001 103.226Z" fill="black"></path><path d="M63.577 120.348C61.592 120.348 59.61 119.592 58.101 118.082C56.641 116.622 55.835 114.679 55.835 112.609C55.835 110.541 56.64 108.596 58.101 107.135C61.118 104.116 66.028 104.113 69.05 107.135C70.514 108.595 71.319 110.541 71.319 112.609C71.319 114.678 70.514 116.624 69.05 118.084C67.54 119.592 65.558 120.348 63.577 120.348ZM63.577 110.032C62.915 110.032 62.253 110.281 61.75 110.786C61.265 111.271 60.996 111.921 60.996 112.611C60.996 113.302 61.264 113.949 61.75 114.434C62.753 115.436 64.392 115.443 65.4 114.434C65.889 113.946 66.157 113.301 66.157 112.611C66.157 111.922 65.889 111.274 65.4 110.786C64.898 110.278 64.238 110.032 63.577 110.032Z" fill="black"></path><path d="M96.423 120.345C94.44 120.345 92.458 119.591 90.948 118.082C89.486 116.624 88.679 114.679 88.679 112.609C88.679 110.541 89.484 108.596 90.948 107.135C93.965 104.116 98.875 104.113 101.897 107.135C103.357 108.595 104.163 110.541 104.163 112.609C104.163 114.678 103.358 116.621 101.897 118.082C100.387 119.592 98.405 120.345 96.423 120.345ZM96.423 110.032C95.763 110.032 95.102 110.281 94.596 110.786C94.108 111.274 93.84 111.921 93.84 112.611C93.84 113.302 94.108 113.947 94.594 114.432C95.601 115.439 97.238 115.444 98.246 114.435C98.734 113.95 99 113.302 99 112.612C99 111.923 98.732 111.273 98.244 110.787C97.744 110.278 97.084 110.032 96.423 110.032Z" fill="black"></path><path d="M80.0001 144.516C69.8711 144.516 61.9351 138.849 61.9351 131.613C61.9351 124.376 69.8711 118.71 80.0001 118.71C90.1291 118.71 98.0651 124.377 98.0651 131.613C98.0651 138.85 90.1291 144.516 80.0001 144.516ZM80.0001 123.871C73.0071 123.871 67.0971 127.417 67.0971 131.613C67.0971 135.809 73.0071 139.355 80.0001 139.355C86.9931 139.355 92.9031 135.809 92.9031 131.613C92.9031 127.417 86.9931 123.871 80.0001 123.871Z" fill="black"></path><path d="M135.001 48.48C136.119 46.18 136.774 43.666 136.774 41.29C136.774 36.08 133.639 31.46 128.944 29.46C128.253 23.545 123.551 18.843 117.636 18.152C115.501 13.142 110.426 9.81 104.745 10.374C102.738 5.742 98.0981 2.58 92.9031 2.58C91.4431 2.58 90.0051 2.838 88.6091 3.349C86.2501 1.202 83.2031 0 80.0001 0C76.7971 0 73.7501 1.202 71.3911 3.349C69.9951 2.839 68.5571 2.58 67.0971 2.58C61.9021 2.58 57.2621 5.742 55.2551 10.376C49.5721 9.81 44.5011 13.142 42.3641 18.154C36.4491 18.846 31.7471 23.547 31.0561 29.462C26.3611 31.459 23.2261 36.079 23.2261 41.289C23.2261 43.668 23.8691 46.177 24.9651 48.474C36.8621 50.18 56.3331 51.613 80.0001 51.613C103.644 51.613 123.105 50.185 135.001 48.48Z" fill="#FFC600"></path><path d="M56.7739 28.387H61.9349V33.548H56.7739V28.387Z" fill="black"></path><path d="M90.323 12.9031H95.484V18.0641H90.323V12.9031Z" fill="black"></path><path d="M77.4189 38.71H82.5799V43.871H77.4189V38.71Z" fill="black"></path><path d="M98.0649 30.968H103.226V36.129H98.0649V30.968Z" fill="black"></path><path d="M72.2581 20.6451C67.9901 20.6451 64.5161 17.1711 64.5161 12.9031H69.6771C69.6771 14.3271 70.8361 15.4841 72.2581 15.4841V20.6451Z" fill="black"></path><path d="M113.548 46.452V41.29C114.969 41.29 116.129 40.133 116.129 38.709H121.29C121.29 42.978 117.816 46.452 113.548 46.452Z" fill="black"></path><path d="M46.452 46.452C42.184 46.452 38.71 42.978 38.71 38.71H43.871C43.871 40.134 45.03 41.291 46.452 41.291V46.452Z" fill="black"></path></svg>