<svg xmlns="http://www.w3.org/2000/svg" width="161" height="160" viewBox="0 0 161 160" fill="none"><g clip-path="url(#clip0_11_942)"><path d="M51.6189 10.3065V15.9325C51.6189 33.3797 42.8953 49.6654 28.3911 59.3438C24.596 53.0205 22.1451 46.0264 21.1383 38.7736V38.7483L22.2491 35.9853C26.2749 25.9202 32.8049 17.0939 41.2712 10.3305C41.4245 10.3305 41.5805 10.3052 41.7352 10.3052L51.6189 10.3065Z" fill="#FFC600"></path><path d="M92.4233 38.7481V38.7735C91.4165 46.0263 88.9656 53.0204 85.1705 59.3437C70.6649 49.6653 61.9426 33.3796 61.9426 15.9323V10.3064H71.8277C71.9824 10.3064 72.1371 10.3317 72.2918 10.3317C80.758 17.0938 87.2867 25.9201 91.3138 35.9865L92.4233 38.7481Z" fill="#FFC600"></path><path d="M25.9895 81.8237C32.0034 84.74 36.1332 90.9087 36.1332 98.0575C36.1332 108.047 28.055 116.123 18.0673 116.123V109.644C18.0659 99.735 20.8542 90.1086 25.9895 81.8237Z" fill="#FFC600"></path><path d="M95.4943 113.543V134.191L94.0488 139.248C87.5961 138.551 82.5902 133.08 82.5902 126.447C82.5889 119.324 88.3708 113.543 95.4943 113.543Z" fill="#FFC600"></path><path d="M141.641 64.5056C144.66 64.5056 147.112 66.9565 147.112 69.9769C147.112 71.421 146.544 72.8145 145.512 73.848L144.532 74.8281L145.512 75.8082C146.544 76.8403 147.112 78.2338 147.112 79.6793C147.112 82.6983 144.66 85.1505 141.641 85.1505C140.195 85.1505 138.802 84.5825 137.77 83.5503L134.208 79.9886H118.722L115.16 83.5503C114.128 84.5825 112.735 85.1505 111.289 85.1505C108.27 85.1505 105.818 82.6983 105.818 79.6793C105.818 78.2338 106.386 76.8403 107.418 75.8082L108.398 74.8281L107.418 73.848C106.386 72.8145 105.818 71.421 105.818 69.9769C105.818 66.9565 108.27 64.5056 111.289 64.5056C112.735 64.5056 114.128 65.0723 115.16 66.1058L118.722 69.6675H134.208L137.77 66.1058C138.802 65.0723 140.195 64.5056 141.641 64.5056Z" fill="#F0BC5E"></path><path d="M113.56 118.705V105.769C101.139 100.587 92.9127 88.3789 92.9127 74.8295C92.9127 56.3301 107.965 41.2778 126.464 41.2778C144.964 41.2778 160.017 56.3288 160.017 74.8295C160.017 92.5034 146.413 107.01 128.878 108.258L113.56 118.705Z" fill="#FFC600"></path><path d="M74.8468 33.5342H80.0087V38.6961H74.8468V33.5342Z" fill="black"></path><path d="M33.5516 33.5342H38.7135V38.6961H33.5516V33.5342Z" fill="black"></path><path d="M154.754 133.481C154.263 130.884 151.03 129.258 143.87 127.999C132.653 126.027 115.111 126.027 103.897 127.999C101.527 128.414 99.6335 128.879 98.0746 129.395V109.633C98.0746 95.7438 92.9474 82.6704 83.6757 72.456C86.1133 68.9076 87.5988 64.6564 87.7415 60.0693C90.1804 55.8915 91.9953 51.4523 93.2928 46.8452C94.4676 48.192 96.1624 49.0214 98.0306 49.0214C100.68 49.0214 103.071 47.3492 103.981 44.8556L113.042 19.9329C113.386 18.9848 113.56 17.9941 113.56 16.9859C113.56 13.4376 111.431 10.2906 108.136 8.97175L87.6508 0.777525C83.5891 -0.849318 78.7899 0.134789 75.6935 3.23112L71.1797 7.74495L42.3633 7.72494L37.8668 3.22846C34.7704 0.132122 29.9712 -0.849318 25.9095 0.774858L5.42725 8.96908C2.12956 10.2866 0 13.4309 0 16.9833C0 17.9927 0.174686 18.9835 0.518723 19.9329L9.58237 44.8556C10.4878 47.3466 12.8787 49.0187 15.5297 49.0187C17.3992 49.0187 19.0914 48.1893 20.2675 46.8425C21.565 51.4497 23.3799 55.8902 25.8188 60.0666C25.9615 64.6538 27.447 68.9049 29.8846 72.4533C20.6129 82.6691 15.4857 95.7411 15.4857 109.631V136.159C15.4857 138.735 14.0522 141.05 11.7519 142.202C7.68617 144.236 5.16189 148.322 5.16189 152.863V154.836C5.16189 157.683 7.47681 159.997 10.3238 159.997H38.7135C42.982 159.997 46.4557 156.522 46.4557 152.255V149.675H67.1033V152.255C67.1033 156.524 70.5783 159.997 74.8454 159.997H160.017V152.255L154.754 133.481ZM123.884 131.609C134.649 131.609 143.744 132.923 147.861 134.189C143.744 135.456 134.649 136.77 123.884 136.77C113.119 136.77 104.025 135.455 99.9068 134.189C104.025 132.923 113.12 131.609 123.884 131.609ZM79.3433 6.87819C80.9968 5.22334 83.5597 4.69395 85.732 5.56738L106.22 13.7616C107.541 14.291 108.398 15.5551 108.398 16.9833C108.398 17.3887 108.329 17.7887 108.189 18.1674L99.1281 43.0901C98.796 44.0035 97.3079 44.0235 96.9465 43.1248L93.7021 35.0159C89.8817 25.4562 83.8157 16.9086 76.0829 10.1385L79.3433 6.87819ZM14.4322 43.0914L5.37125 18.1687C5.23123 17.7874 5.16189 17.3873 5.16189 16.9819C5.16189 15.5538 6.01932 14.2923 7.34346 13.7603L27.8283 5.56604C28.5324 5.28335 29.2698 5.142 30.0286 5.142C31.6114 5.142 33.1009 5.75806 34.2197 6.87552L37.4774 10.1332C29.7419 16.9086 23.6799 25.4562 19.8568 35.0132L16.6151 43.1221C16.2524 44.0235 14.7656 43.9995 14.4322 43.0914ZM23.8199 39.0083L24.6507 36.9321C28.3911 27.5791 34.4744 19.2915 42.2459 12.8855L71.3211 12.8908C79.0872 19.2942 85.1706 27.5791 88.911 36.9321L89.7417 39.0083C88.7376 45.7571 86.4734 52.1551 82.9597 58.0157L82.5903 58.6278V59.3425C82.5903 66.6567 78.2138 72.956 71.9465 75.7963C72.1358 75.0709 72.2665 74.3215 72.2665 73.5374V72.2479H67.1046V73.5387C67.1046 75.6736 65.3684 77.4098 63.2335 77.4098C61.0986 77.4098 59.3624 75.6736 59.3624 73.5387V66.6607C60.7199 66.2446 61.98 65.5379 63.0122 64.5058L65.2804 62.2375C66.4579 61.0601 67.1046 59.4959 67.1046 57.8317C67.1046 54.3967 64.3096 51.6017 60.8746 51.6017H52.6884C49.2533 51.6017 46.4584 54.3967 46.4584 57.8317C46.4584 59.4959 47.1064 61.0601 48.2826 62.2375L50.5508 64.5058C51.5829 65.5379 52.8431 66.2446 54.2005 66.6607V73.5387C54.2005 75.6736 52.4643 77.4098 50.3295 77.4098C48.1946 77.4098 46.4584 75.6736 46.4584 73.5387V72.2479H41.2965V73.5387C41.2965 74.3228 41.4272 75.0709 41.6165 75.7976C35.3492 72.9587 30.9727 66.658 30.9727 59.3439V58.6291L30.6033 58.0144C27.0869 52.1551 24.8267 45.7571 23.8199 39.0083ZM54.1992 60.856L51.931 58.5878C51.7323 58.3891 51.6189 58.1131 51.6189 57.8317C51.6189 57.2436 52.099 56.7636 52.687 56.7636H60.8733C61.4613 56.7636 61.9414 57.2436 61.9414 57.8317C61.9414 58.1131 61.828 58.3891 61.6293 58.5878L59.3611 60.856C58.0036 62.2135 55.5567 62.2135 54.1992 60.856ZM61.3733 82.5717L60.4212 87.3282C60.0745 89.0578 58.545 90.3152 56.7795 90.3152C55.014 90.3152 53.4845 89.0578 53.1351 87.3282L52.1856 82.5717H61.3733V82.5717ZM46.457 144.514V121.285C46.457 115.591 51.0869 110.961 56.7808 110.961C62.4748 110.961 67.1046 115.591 67.1046 121.285V144.513H46.457V144.514ZM72.2665 152.257V121.285C72.2665 112.744 65.3217 105.8 56.7808 105.8C48.2399 105.8 41.2951 112.746 41.2951 121.285V152.257C41.2951 153.678 40.1363 154.837 38.7149 154.837H10.3238V152.865C10.3238 150.288 11.7573 147.973 14.0575 146.823C18.1233 144.789 20.6476 140.703 20.6476 136.16V109.632C20.6476 97.244 25.1467 85.5707 33.2889 76.375C36.9413 79.7554 41.6672 81.985 46.9011 82.465L48.0759 88.339C48.9053 92.4741 52.5644 95.4758 56.7808 95.4758C60.9973 95.4758 64.6577 92.4741 65.4858 88.339L66.6606 82.465C71.8945 81.985 76.6203 79.7541 80.2727 76.375C88.4149 85.5707 92.9141 97.244 92.9141 109.632V133.828L87.8535 151.547L87.7962 154.838H74.8481C73.4253 154.838 72.2665 153.678 72.2665 152.257ZM154.855 154.838H92.9127V152.619L96.9212 138.587C98.6307 139.275 100.924 139.861 103.894 140.383C109.505 141.369 116.789 141.934 123.884 141.934C130.98 141.934 138.262 141.369 143.872 140.383C146.843 139.862 149.136 139.275 150.844 138.587L154.855 152.619V154.838Z" fill="black"></path><path d="M121.304 147.095H126.466V152.257H121.304V147.095Z" fill="black"></path><path d="M110.98 147.095H116.142V152.257H110.98V147.095Z" fill="black"></path><path d="M131.628 147.095H136.789V152.257H131.628V147.095Z" fill="black"></path><path d="M103.236 69.9796C103.236 71.7531 103.805 73.4373 104.857 74.8295C103.805 76.2203 103.236 77.9058 103.236 79.6793C103.236 84.1211 106.849 87.7349 111.292 87.7349C113.444 87.7349 115.467 86.8961 116.989 85.3759L119.792 82.573H133.14L135.943 85.3759C137.464 86.8961 139.487 87.7349 141.639 87.7349C146.081 87.7349 149.695 84.1225 149.695 79.6793C149.695 77.9058 149.127 76.2216 148.075 74.8295C149.127 73.4387 149.695 71.7531 149.695 69.9796C149.695 65.5378 146.082 61.9241 141.639 61.9241C139.487 61.9241 137.464 62.7615 135.943 64.283L133.14 67.086H119.792L116.989 64.283C115.467 62.7615 113.444 61.9241 111.292 61.9241C106.85 61.9241 103.236 65.5378 103.236 69.9796ZM117.654 72.2479H135.277L139.592 67.9327C140.139 67.3873 140.866 67.086 141.639 67.086C143.234 67.086 144.533 68.3834 144.533 69.9796C144.533 70.753 144.23 71.4798 143.686 72.0265L140.883 74.8295L143.686 77.6324C144.23 78.1792 144.533 78.9059 144.533 79.6793C144.533 81.2742 143.235 82.573 141.639 82.573C140.866 82.573 140.139 82.2703 139.592 81.7262L135.277 77.4111H117.654L113.339 81.7262C112.792 82.2703 112.065 82.573 111.292 82.573C109.697 82.573 108.398 81.2755 108.398 79.6793C108.398 78.9059 108.701 78.1792 109.245 77.6324L112.048 74.8295L109.245 72.0265C108.701 71.4798 108.398 70.753 108.398 69.9796C108.398 68.3848 109.696 67.086 111.292 67.086C112.065 67.086 112.792 67.3873 113.339 67.9327L117.654 72.2479Z" fill="black"></path></g><defs><clipPath id="clip0_11_942"><rect width="160.017" height="160" fill="white"></rect></clipPath></defs></svg>