<!-- Generated by IcoMoon.io -->
<svg version="1.1" xmlns="http://www.w3.org/2000/svg" width="61" height="32" viewBox="0 0 61 32">
<title>logo</title>
<path fill="#ffc600" d="M15.097 4.995c0.297-0.523-0.083-1.352-0.85-1.851s-1.63-0.481-1.928 0.042c-0.297 0.522 0.083 1.352 0.85 1.851s1.63 0.48 1.928-0.042zM20.561 2.208c-0.599 0.702-0.737 1.607-0.308 2.022s1.262 0.183 1.861-0.519 0.736-1.607 0.307-2.022c-0.428-0.415-1.261-0.182-1.86 0.519zM16.477 3.643c0.532-0.27 0.66-1.174 0.288-2.018s-1.106-1.308-1.638-1.038c-0.532 0.271-0.66 1.174-0.287 2.018s1.105 1.308 1.637 1.038zM18.558 3.335c0.585 0.105 1.16-0.554 1.286-1.471s-0.246-1.747-0.83-1.853c-0.585-0.105-1.16 0.554-1.286 1.472s0.246 1.747 0.83 1.852zM25.426 6.162c0.419-0.187 0.563-0.873 0.321-1.534s-0.778-1.044-1.198-0.858c-0.419 0.186-0.563 0.873-0.321 1.533s0.778 1.044 1.198 0.858zM31.406 7.481c-0.074-0.453-0.689-0.692-1.373-0.534s-1.18 0.655-1.107 1.108c0.074 0.453 0.689 0.692 1.374 0.534 0.684-0.159 1.179-0.655 1.106-1.108zM26.883 5.961c0.448 0.077 0.937-0.422 1.092-1.114s-0.082-1.316-0.53-1.393c-0.448-0.077-0.937 0.422-1.092 1.114s0.083 1.316 0.53 1.393zM30.084 4.881c-0.31-0.333-0.961-0.19-1.455 0.319s-0.643 1.191-0.333 1.525c0.31 0.333 0.961 0.19 1.455-0.319s0.643-1.192 0.333-1.525zM17.863 3.932c-0.002 0-0.003 0-0.005 0.001-0.031 0-0.062 0.001-0.092 0.003-0.019 0.001-0.039 0.002-0.059 0.004s-0.040 0.004-0.060 0.006c-0.022 0.003-0.044 0.006-0.065 0.009s-0.044 0.006-0.065 0.010c-0.020 0.003-0.040 0.008-0.059 0.012s-0.038 0.009-0.058 0.013c-0.029 0.008-0.059 0.015-0.088 0.023-0.002 0.001-0.003 0.001-0.005 0.001-0.906 0.253-1.79 1.075-2.275 2.238-0.719 1.723-0.292 3.542 0.954 4.060 0.766 0.318 1.457-0.319 2.423-0.463s1.804 0.268 2.451-0.259c1.053-0.859 0.963-2.728-0.2-4.172-0.785-0.976-1.859-1.508-2.797-1.487zM19.587 7.554l-1.305 1.309-1.611-0.877c-0.374-0.126-0.664-0.454-0.723-0.874-0.083-0.596 0.33-1.15 0.923-1.238 0.429-0.064 0.835 0.135 1.059 0.475 0.12-0.392 0.456-0.699 0.885-0.763 0.593-0.088 1.142 0.324 1.225 0.919 0.059 0.421-0.129 0.82-0.453 1.050zM27.6 6.775c-0.001-0.001-0.002-0.001-0.003-0.002-0.019-0.014-0.038-0.027-0.058-0.040-0.012-0.008-0.025-0.016-0.038-0.024-0.013-0.009-0.026-0.016-0.040-0.024-0.015-0.008-0.029-0.017-0.044-0.025s-0.030-0.015-0.045-0.023c-0.014-0.007-0.027-0.013-0.041-0.021-0.013-0.006-0.027-0.012-0.041-0.018-0.021-0.009-0.043-0.018-0.065-0.026-0.001-0.001-0.002-0.001-0.003-0.002-0.669-0.26-1.583-0.157-2.408 0.338-1.222 0.735-1.786 2.053-1.26 2.945 0.323 0.548 1.036 0.472 1.691 0.826 0.656 0.355 0.981 0.994 1.617 0.965 1.034-0.048 1.828-1.243 1.772-2.668-0.038-0.961-0.453-1.783-1.036-2.2zM27.447 9.342c-0.136 0.256-0.4 0.401-0.67 0.396l-1.242 0.196-0.531-1.14c-0.154-0.222-0.182-0.521-0.045-0.778 0.194-0.364 0.643-0.503 1.004-0.311 0.261 0.139 0.404 0.414 0.39 0.693 0.223-0.168 0.531-0.202 0.792-0.063 0.36 0.191 0.496 0.642 0.302 1.007z"></path>
<path fill="#fff" d="M11.672 19.964c-0.027-0.383-0.055-0.75-0.081-1.1s-0.041-0.683-0.041-1c0-0.367 0.027-0.725 0.081-1.075-0.38 0.025-0.741 0.040-1.080 0.044s-0.664 0.006-0.972 0.006c-0.58 0-1.094-0.010-1.542-0.031s-0.827-0.048-1.135-0.081c-0.362-0.033-0.68-0.075-0.951-0.125 0.009 0.1 0.018 0.208 0.027 0.325 0.009 0.1 0.016 0.221 0.020 0.362s0.007 0.296 0.007 0.463c0 0.342-0.016 0.71-0.048 1.106s-0.097 0.781-0.197 1.156c0.616-0.116 1.16-0.208 1.631-0.275s0.865-0.121 1.182-0.162c0.081 0.308 0.145 0.617 0.19 0.925s0.077 0.584 0.095 0.825c0.027 0.291 0.041 0.571 0.041 0.837 0 1.167-0.165 2.029-0.496 2.587s-0.831 0.838-1.502 0.838c-0.335 0-0.705-0.169-1.108-0.506s-0.781-0.84-1.135-1.506c-0.353-0.667-0.648-1.494-0.883-2.481s-0.353-2.135-0.353-3.444c0-1.3 0.118-2.423 0.353-3.369 0.236-0.945 0.516-1.724 0.842-2.337s0.663-1.065 1.012-1.356c0.348-0.291 0.641-0.438 0.876-0.438 0.181 0.017 0.358 0.046 0.53 0.087 0.154 0.042 0.312 0.1 0.475 0.175s0.312 0.183 0.449 0.325c-0.154 0.15-0.269 0.311-0.347 0.481s-0.134 0.327-0.17 0.469c-0.036 0.167-0.059 0.337-0.068 0.513 0 0.35 0.056 0.644 0.17 0.881s0.26 0.429 0.442 0.575c0.181 0.146 0.392 0.248 0.632 0.306s0.482 0.087 0.727 0.087c0.254 0 0.505-0.048 0.754-0.144s0.473-0.237 0.673-0.425c0.199-0.187 0.36-0.425 0.482-0.713s0.183-0.623 0.183-1.006-0.084-0.785-0.251-1.206c-0.168-0.421-0.437-0.806-0.809-1.156s-0.854-0.639-1.447-0.869c-0.593-0.229-1.316-0.344-2.167-0.344s-1.683 0.173-2.494 0.519c-0.81 0.345-1.532 0.891-2.167 1.637s-1.144 1.706-1.528 2.881c-0.385 1.175-0.578 2.592-0.578 4.25s0.183 3.106 0.55 4.344c0.367 1.238 0.856 2.268 1.467 3.094s1.32 1.444 2.127 1.856c0.806 0.413 1.653 0.618 2.541 0.618 0.879 0 1.637-0.137 2.276-0.413s1.169-0.642 1.59-1.1c0.421-0.458 0.734-0.979 0.938-1.563s0.305-1.183 0.305-1.8c0-0.475-0.013-0.923-0.041-1.344-0.027-0.419-0.054-0.822-0.081-1.204zM23.847 13.789c-0.421-0.617-0.954-1.096-1.596-1.438s-1.409-0.513-2.296-0.513c-0.879 0-1.656 0.202-2.33 0.606s-1.241 0.969-1.698 1.694-0.804 1.592-1.040 2.6c-0.236 1.008-0.353 2.117-0.353 3.325 0 1.042 0.1 2.004 0.299 2.888s0.51 1.646 0.931 2.288 0.955 1.142 1.603 1.5c0.648 0.358 1.42 0.538 2.317 0.538 0.724 0 1.361-0.133 1.909-0.4s1.021-0.625 1.42-1.075c0.399-0.45 0.729-0.965 0.992-1.544s0.473-1.181 0.632-1.806c0.158-0.625 0.272-1.25 0.34-1.875s0.102-1.204 0.102-1.737c0-1.033-0.1-1.979-0.299-2.838-0.2-0.858-0.51-1.596-0.931-2.213zM21.747 19.526c-0.036 0.567-0.091 1.123-0.163 1.669s-0.17 1.067-0.292 1.563-0.267 0.931-0.435 1.306c-0.168 0.375-0.365 0.673-0.591 0.894s-0.485 0.331-0.774 0.331-0.542-0.102-0.754-0.306c-0.213-0.204-0.392-0.5-0.537-0.887s-0.254-0.858-0.326-1.413c-0.073-0.554-0.109-1.181-0.109-1.881 0-1.083 0.061-2.056 0.183-2.919s0.29-1.594 0.503-2.194c0.213-0.6 0.46-1.058 0.741-1.375s0.584-0.475 0.911-0.475c0.299 0 0.554 0.094 0.768 0.281s0.389 0.456 0.53 0.806c0.14 0.35 0.242 0.777 0.305 1.281s0.095 1.073 0.095 1.706c-0.001 0.508-0.019 1.046-0.055 1.612zM37.298 13.789c-0.362-0.583-0.809-1.010-1.338-1.281s-1.135-0.406-1.814-0.406c-0.562 0-1.101 0.196-1.617 0.588s-0.969 0.937-1.359 1.638l0.081-1.388-3.085 0.037c0.055 1.642 0.081 3.233 0.081 4.775 0 1.158-0.013 2.305-0.041 3.437s-0.068 2.268-0.122 3.406-0.12 2.285-0.197 3.444c-0.077 1.158-0.17 2.338-0.279 3.537l3.642 0.062c-0.073-1.042-0.127-2.063-0.163-3.063s-0.063-1.996-0.081-2.988c0.326 0.375 0.655 0.664 0.985 0.869s0.632 0.352 0.904 0.444c0.317 0.108 0.625 0.175 0.924 0.2 0.571 0 1.13-0.133 1.678-0.4s1.040-0.706 1.474-1.319 0.783-1.417 1.046-2.412c0.262-0.995 0.394-2.223 0.394-3.681 0-1.275-0.095-2.364-0.285-3.269s-0.465-1.647-0.828-2.231zM34.791 21.645c-0.132 0.696-0.301 1.263-0.51 1.7s-0.446 0.759-0.713 0.962c-0.267 0.204-0.536 0.306-0.809 0.306-0.2 0-0.385-0.050-0.557-0.15s-0.333-0.227-0.482-0.381c-0.15-0.154-0.288-0.321-0.414-0.5s-0.236-0.348-0.326-0.506v-0.225c0-0.875 0.007-1.741 0.020-2.6s0.034-1.733 0.061-2.625c0.036-0.116 0.095-0.275 0.177-0.475s0.179-0.414 0.292-0.643 0.238-0.463 0.374-0.7c0.136-0.237 0.283-0.45 0.442-0.638s0.324-0.342 0.496-0.463c0.172-0.12 0.349-0.181 0.53-0.181 0.218 0 0.426 0.090 0.625 0.269s0.371 0.458 0.517 0.838c0.145 0.379 0.26 0.858 0.347 1.438s0.129 1.269 0.129 2.069c-0.001 0.974-0.067 1.809-0.198 2.505zM50.362 21.976c-0.208-0.166-0.424-0.279-0.645-0.337s-0.41-0.087-0.564-0.087c-0.145 0-0.34 0.027-0.584 0.081s-0.485 0.152-0.72 0.294c-0.236 0.142-0.439 0.337-0.611 0.588s-0.258 0.575-0.258 0.975c0.009 0.183 0.049 0.358 0.122 0.525 0.063 0.142 0.158 0.292 0.285 0.45s0.308 0.287 0.543 0.387c-0.1 0.175-0.224 0.308-0.374 0.4s-0.297 0.158-0.442 0.2c-0.163 0.050-0.335 0.079-0.517 0.087-0.281 0-0.528-0.083-0.741-0.25s-0.399-0.4-0.557-0.7c-0.159-0.3-0.29-0.663-0.394-1.087s-0.183-0.895-0.238-1.413c1.005-0.258 1.896-0.61 2.67-1.057s1.424-0.941 1.95-1.488c0.525-0.546 0.922-1.125 1.189-1.737s0.401-1.219 0.401-1.819c0-0.667-0.12-1.256-0.36-1.769s-0.564-0.944-0.972-1.294-0.883-0.614-1.427-0.794c-0.543-0.179-1.119-0.269-1.726-0.269-0.408 0-0.822 0.050-1.243 0.15s-0.829 0.269-1.223 0.506c-0.394 0.237-0.763 0.546-1.108 0.925s-0.645 0.848-0.904 1.406c-0.258 0.559-0.462 1.212-0.611 1.962s-0.224 1.612-0.224 2.587c0 1.033 0.075 1.948 0.224 2.744s0.353 1.489 0.611 2.081 0.564 1.092 0.918 1.5c0.353 0.408 0.729 0.738 1.128 0.987s0.815 0.429 1.25 0.538c0.435 0.108 0.865 0.162 1.291 0.162 0.634 0 1.232-0.092 1.794-0.275s1.051-0.433 1.467-0.75 0.748-0.692 0.992-1.125c0.244-0.433 0.367-0.895 0.367-1.388s-0.074-0.89-0.224-1.194c-0.149-0.303-0.328-0.538-0.536-0.705zM44.56 19.401c0-0.733 0.027-1.438 0.081-2.113s0.154-1.271 0.299-1.787c0.145-0.517 0.335-0.931 0.571-1.244s0.539-0.469 0.911-0.469c0.218 0 0.41 0.060 0.578 0.182s0.308 0.281 0.421 0.481 0.199 0.436 0.258 0.706c0.059 0.271 0.088 0.556 0.088 0.856 0 0.45-0.079 0.883-0.238 1.3s-0.38 0.81-0.666 1.181c-0.285 0.371-0.625 0.71-1.019 1.019s-0.822 0.575-1.284 0.8v-0.912h-0.001zM58.385 15.426c0.408 0.025 0.824 0.058 1.25 0.1s0.856 0.096 1.291 0.162l-0.054-3.2c-0.408 0.025-0.806 0.044-1.196 0.056s-0.784 0.027-1.182 0.044c0.045-0.833 0.090-1.665 0.136-2.494s0.104-1.673 0.177-2.531l-3.451 0.050c0.018 0.842 0.036 1.677 0.055 2.506s0.027 1.661 0.027 2.494c-0.362-0.017-0.727-0.031-1.094-0.044s-0.736-0.031-1.108-0.056l-0.11 2.963c0.399-0.025 0.788-0.048 1.168-0.069s0.761-0.040 1.142-0.056c-0.027 1.983-0.080 3.952-0.157 5.906s-0.175 3.91-0.292 5.869l3.547 0.050c-0.073-1.267-0.124-2.525-0.157-3.775s-0.048-2.508-0.048-3.775c0-0.708 0.002-1.408 0.007-2.1s0.021-1.392 0.048-2.1z"></path>
</svg>
